<mxfile host="app.diagrams.net" modified="2023-10-25T12:27:26.073Z" agent="Mozilla/5.0 (Windows NT 10.0; Win64; x64) AppleWebKit/537.36 (KHTML, like Gecko) Chrome/116.0.0.0 Safari/537.36 OPR/102.0.0.0" etag="_e7OJB-03-GX7eAu1RUL" version="22.0.7" type="device">
  <diagram name="Page-1" id="fyIbi5tmxJDSqmqRd0Zt">
    <mxGraphModel dx="2014" dy="647" grid="1" gridSize="10" guides="1" tooltips="1" connect="1" arrows="1" fold="1" page="1" pageScale="1" pageWidth="827" pageHeight="1169" math="0" shadow="0">
      <root>
        <mxCell id="0" />
        <mxCell id="1" parent="0" />
        <mxCell id="gBctlnT9AkoEiy3b6WKt-86" style="edgeStyle=orthogonalEdgeStyle;rounded=0;orthogonalLoop=1;jettySize=auto;html=1;exitX=0.5;exitY=1;exitDx=0;exitDy=0;entryX=0.5;entryY=0;entryDx=0;entryDy=0;" edge="1" parent="1" source="gBctlnT9AkoEiy3b6WKt-80" target="gBctlnT9AkoEiy3b6WKt-1">
          <mxGeometry relative="1" as="geometry">
            <mxPoint x="310" y="320" as="targetPoint" />
          </mxGeometry>
        </mxCell>
        <mxCell id="gBctlnT9AkoEiy3b6WKt-89" style="edgeStyle=orthogonalEdgeStyle;rounded=0;orthogonalLoop=1;jettySize=auto;html=1;exitX=0.5;exitY=1;exitDx=0;exitDy=0;entryX=0.5;entryY=0;entryDx=0;entryDy=0;" edge="1" parent="1" source="gBctlnT9AkoEiy3b6WKt-1" target="gBctlnT9AkoEiy3b6WKt-81">
          <mxGeometry relative="1" as="geometry" />
        </mxCell>
        <mxCell id="gBctlnT9AkoEiy3b6WKt-90" style="edgeStyle=orthogonalEdgeStyle;rounded=0;orthogonalLoop=1;jettySize=auto;html=1;exitX=1;exitY=0.5;exitDx=0;exitDy=0;entryX=0;entryY=0.5;entryDx=0;entryDy=0;" edge="1" parent="1" source="gBctlnT9AkoEiy3b6WKt-1" target="gBctlnT9AkoEiy3b6WKt-83">
          <mxGeometry relative="1" as="geometry" />
        </mxCell>
        <mxCell id="gBctlnT9AkoEiy3b6WKt-1" value="" style="whiteSpace=wrap;html=1;aspect=fixed;" vertex="1" parent="1">
          <mxGeometry x="160" y="390" width="130" height="130" as="geometry" />
        </mxCell>
        <mxCell id="gBctlnT9AkoEiy3b6WKt-88" style="edgeStyle=orthogonalEdgeStyle;rounded=0;orthogonalLoop=1;jettySize=auto;html=1;exitX=1;exitY=1;exitDx=0;exitDy=0;entryX=0.75;entryY=0;entryDx=0;entryDy=0;" edge="1" parent="1" source="gBctlnT9AkoEiy3b6WKt-79" target="gBctlnT9AkoEiy3b6WKt-1">
          <mxGeometry relative="1" as="geometry" />
        </mxCell>
        <mxCell id="gBctlnT9AkoEiy3b6WKt-79" value="" style="rounded=1;whiteSpace=wrap;html=1;rotation=90;" vertex="1" parent="1">
          <mxGeometry x="380" y="180" width="120" height="60" as="geometry" />
        </mxCell>
        <mxCell id="gBctlnT9AkoEiy3b6WKt-80" value="" style="ellipse;whiteSpace=wrap;html=1;" vertex="1" parent="1">
          <mxGeometry x="160" y="40" width="120" height="80" as="geometry" />
        </mxCell>
        <mxCell id="gBctlnT9AkoEiy3b6WKt-81" value="" style="shape=hexagon;perimeter=hexagonPerimeter2;whiteSpace=wrap;html=1;fixedSize=1;" vertex="1" parent="1">
          <mxGeometry x="100" y="670" width="120" height="80" as="geometry" />
        </mxCell>
        <mxCell id="gBctlnT9AkoEiy3b6WKt-82" value="" style="shape=hexagon;perimeter=hexagonPerimeter2;whiteSpace=wrap;html=1;fixedSize=1;size=40;" vertex="1" parent="1">
          <mxGeometry x="520" y="670" width="120" height="80" as="geometry" />
        </mxCell>
        <mxCell id="gBctlnT9AkoEiy3b6WKt-91" style="edgeStyle=orthogonalEdgeStyle;rounded=0;orthogonalLoop=1;jettySize=auto;html=1;exitX=0.5;exitY=1;exitDx=0;exitDy=0;entryX=0.5;entryY=0;entryDx=0;entryDy=0;" edge="1" parent="1" source="gBctlnT9AkoEiy3b6WKt-83" target="gBctlnT9AkoEiy3b6WKt-82">
          <mxGeometry relative="1" as="geometry" />
        </mxCell>
        <mxCell id="gBctlnT9AkoEiy3b6WKt-83" value="" style="whiteSpace=wrap;html=1;aspect=fixed;" vertex="1" parent="1">
          <mxGeometry x="520" y="420" width="100" height="100" as="geometry" />
        </mxCell>
        <mxCell id="gBctlnT9AkoEiy3b6WKt-87" value="" style="endArrow=classic;html=1;rounded=0;entryX=0;entryY=0.5;entryDx=0;entryDy=0;" edge="1" parent="1" target="gBctlnT9AkoEiy3b6WKt-80">
          <mxGeometry width="50" height="50" relative="1" as="geometry">
            <mxPoint x="-20" y="80" as="sourcePoint" />
            <mxPoint x="100" y="70" as="targetPoint" />
          </mxGeometry>
        </mxCell>
        <mxCell id="gBctlnT9AkoEiy3b6WKt-92" value="Serveur" style="text;strokeColor=none;align=center;fillColor=none;html=1;verticalAlign=middle;whiteSpace=wrap;rounded=0;" vertex="1" parent="1">
          <mxGeometry x="410" y="195" width="60" height="30" as="geometry" />
        </mxCell>
        <mxCell id="gBctlnT9AkoEiy3b6WKt-93" value="&lt;font style=&quot;font-size: 19px;&quot;&gt;Switch&lt;/font&gt;" style="text;strokeColor=none;align=center;fillColor=none;html=1;verticalAlign=middle;whiteSpace=wrap;rounded=0;" vertex="1" parent="1">
          <mxGeometry x="195" y="440" width="60" height="30" as="geometry" />
        </mxCell>
        <mxCell id="gBctlnT9AkoEiy3b6WKt-95" value="&lt;font style=&quot;font-size: 17px;&quot;&gt;Ordinateur&lt;/font&gt;" style="text;strokeColor=none;align=center;fillColor=none;html=1;verticalAlign=middle;whiteSpace=wrap;rounded=0;" vertex="1" parent="1">
          <mxGeometry x="550" y="695" width="60" height="30" as="geometry" />
        </mxCell>
        <mxCell id="gBctlnT9AkoEiy3b6WKt-96" value="&lt;font style=&quot;font-size: 17px;&quot;&gt;Ordinateur&lt;/font&gt;" style="text;strokeColor=none;align=center;fillColor=none;html=1;verticalAlign=middle;whiteSpace=wrap;rounded=0;" vertex="1" parent="1">
          <mxGeometry x="135" y="695" width="60" height="30" as="geometry" />
        </mxCell>
        <mxCell id="gBctlnT9AkoEiy3b6WKt-97" value="&lt;font style=&quot;font-size: 17px;&quot;&gt;Routeur&lt;/font&gt;" style="text;strokeColor=none;align=center;fillColor=none;html=1;verticalAlign=middle;whiteSpace=wrap;rounded=0;" vertex="1" parent="1">
          <mxGeometry x="190" y="65" width="60" height="30" as="geometry" />
        </mxCell>
        <mxCell id="gBctlnT9AkoEiy3b6WKt-98" value="Access point" style="text;strokeColor=none;align=center;fillColor=none;html=1;verticalAlign=middle;whiteSpace=wrap;rounded=0;" vertex="1" parent="1">
          <mxGeometry x="540" y="455" width="60" height="30" as="geometry" />
        </mxCell>
      </root>
    </mxGraphModel>
  </diagram>
</mxfile>
